<?xml version="1.0" encoding="UTF-8"?>
<!DOCTYPE svg PUBLIC "-//W3C//DTD SVG 1.1//EN" "http://www.w3.org/Graphics/SVG/1.1/DTD/svg11.dtd">
<!-- Creator: CorelDRAW X7 -->
<svg xmlns="http://www.w3.org/2000/svg" xml:space="preserve" width="210px" height="200px" version="1.1" style="shape-rendering:geometricPrecision; text-rendering:geometricPrecision; image-rendering:optimizeQuality; fill-rule:evenodd; clip-rule:evenodd"
viewBox="0 0 70000 66666"
 xmlns:xlink="http://www.w3.org/1999/xlink">
 <defs>
  <style type="text/css">
   <![CDATA[
    .fil1 {fill:#E1E1E1}
    .fil0 {fill:#EDEDED}
   ]]>
  </style>
 </defs>
 <g id="Layer_x0020_1">
  <metadata id="CorelCorpID_0Corel-Layer"/>
  <rect class="fil0" width="70000" height="66667"/>
  <path class="fil0" d="M0 63501l0 -8947 31436 6 2147 -8080 -21818 -23 3115 -11258 5714 -2206 1425 -5397 -5808 2167 4532 -17606 -13224 -27 -6116 23154 -1403 524 0 -32617c3570,-1642 7525,-2668 11875,-3070 9801,-906 20268,3423 26719,10564 5106,5651 8255,12192 8821,20285 1331,19083 -13191,34314 -30794,35606 -6124,450 -11855,-860 -16621,-3075z"/>
  <path class="fil1" d="M0 63501l0 -8947 31436 6 2147 -8080 -21818 -23 3115 -11258 5714 -2206 1425 -5397 -5808 2167 4532 -17606 -13224 -27 -6116 23154 -1403 524 0 -32617c3570,-1642 7525,-2668 11875,-3070 9801,-906 20268,3423 26719,10564 5106,5651 8255,12192 8821,20285 1331,19083 -13191,34314 -30794,35606 -6124,450 -11855,-860 -16621,-3075z"/>
 </g>
</svg>
