<?xml version="1.0" encoding="UTF-8"?>
<!DOCTYPE svg PUBLIC "-//W3C//DTD SVG 1.1//EN" "http://www.w3.org/Graphics/SVG/1.1/DTD/svg11.dtd">
<!-- Creator: CorelDRAW X7 -->
<svg xmlns="http://www.w3.org/2000/svg" xml:space="preserve" width="210px" height="200px" version="1.1" style="shape-rendering:geometricPrecision; text-rendering:geometricPrecision; image-rendering:optimizeQuality; fill-rule:evenodd; clip-rule:evenodd"
viewBox="0 0 2157 2054"
 xmlns:xlink="http://www.w3.org/1999/xlink">
 <defs>
  <style type="text/css">
   <![CDATA[
    .fil0 {fill:#EDEDED}
    .fil1 {fill:#0098DA;fill-opacity:0.101961}
   ]]>
  </style>
 </defs>
 <g id="Layer_x0020_1">
  <metadata id="CorelCorpID_0Corel-Layer"/>
  <rect class="fil0" width="2157" height="2054"/>
 </g>
 <g id="Layer_x0020_1_0">
  <metadata id="CorelCorpID_1Corel-Layer"/>
  <g id="_1478063568">
   <path class="fil1" d="M180 1703l0 60 118 0 0 -25c-20,-4 -40,-9 -59,-15 -20,-6 -40,-12 -59,-20z"/>
   <path class="fil1" d="M338 1862l-21 0 0 65c7,1 14,2 21,3 13,1 25,2 38,3 19,2 39,2 58,3l0 -74 -96 0z"/>
   <polygon class="fil1" points="180,1779 180,1847 298,1847 298,1779 "/>
   <polygon class="fil1" points="338,1779 317,1779 317,1847 434,1847 434,1779 "/>
   <path class="fil1" d="M338 1745c-7,-1 -14,-2 -21,-4l0 22 117 0 0 -11c-19,0 -39,-1 -58,-3 -13,-1 -25,-2 -38,-4z"/>
   <path class="fil1" d="M0 1798l0 -314 106 -152 0 -214 -106 0 0 -181 250 0c-4,9 -8,18 -11,28 -6,20 -9,41 -9,62 0,22 3,43 9,63 10,32 27,61 49,85l0 214 -49 69 -110 157 -129 183zm0 -1229l0 -316 129 184 110 157 47 68 2 2 0 189 -182 0 0 -132 -106 -152z"/>
   <path class="fil1" d="M180 1862l0 35c20,6 39,11 59,15 20,5 39,9 59,12l0 -62 -118 0z"/>
   <path class="fil1" d="M85 1862c15,6 29,12 44,18 11,4 22,7 33,11l0 -29 -77 0z"/>
   <path class="fil1" d="M512 1862l-59 0 0 74c20,-1 40,-1 59,-3 12,-1 25,-2 37,-3 7,-1 15,-2 22,-3l0 -65 -59 0z"/>
   <path class="fil1" d="M129 1716l-32 47 65 0 0 -68c-5,-1 -10,-3 -14,-5l-19 26z"/>
   <path class="fil1" d="M85 1779l-44 63c4,2 7,3 11,5l110 0 0 -68 -77 0z"/>
   <path class="fil1" d="M239 494l99 142 15 20 0 177c7,-4 15,-7 23,-10 21,-7 44,-11 68,-11 24,0 47,4 68,11 8,3 15,6 22,10l0 -175 1 0 14 -20 100 -143 110 -157 87 -125c-28,-14 -57,-26 -87,-37 -29,-11 -59,-20 -89,-28l-21 31 -100 142 -37 52 -68 97 0 0 -68 -98 -38 -53 -99 -141 -21 -30c-30,8 -60,17 -89,28 -30,11 -59,23 -87,37l87 124 110 157z"/>
   <polygon class="fil1" points="512,1779 453,1779 453,1847 571,1847 571,1779 "/>
   <path class="fil1" d="M726 1862l0 29c11,-4 22,-8 33,-12 14,-5 29,-11 43,-17l-76 0z"/>
   <path class="fil1" d="M1043 346l-2 -2c-2,-1 -3,-3 -4,-4 -2,-1 -4,-3 -6,-5l-4 -3c-2,-2 -4,-3 -6,-5l-3 -3c-3,-2 -5,-4 -8,-6l-1 -1c-3,-3 -6,-5 -9,-7l-1 0 0 -1c-33,-25 -67,-48 -103,-69l-137 196 -110 157 -48 69 -2 2 0 189 181 0 0 -132 158 -225c122,113 204,267 226,441l-527 0c5,9 9,19 12,30 5,19 8,39 8,60 0,21 -3,42 -8,61 -10,33 -27,63 -50,87l0 213 50 70 110 157 139 198c228,-132 393,-360 440,-629l-185 0c-32,146 -108,275 -213,374l-160 -228 0 -212 567 0c3,-30 4,-60 4,-91 0,-30 -1,-61 -4,-90l0 0c-23,-235 -136,-443 -304,-591z"/>
   <path class="fil1" d="M590 1738l0 25 117 0 0 -60c-19,7 -38,14 -58,20 -20,6 -39,11 -59,15z"/>
   <path class="fil1" d="M791 1763l-32 -47 -19 -27c-5,2 -9,4 -14,6l0 68 65 0z"/>
   <path class="fil1" d="M759 1779l-33 0 0 68 110 0c3,-2 7,-4 10,-5l-43 -63 -44 0z"/>
   <path class="fil1" d="M593 1674l1 -1 2 0 2 0 1 -1 2 0 1 0 3 -1 0 0 3 -1 1 0 2 -1 1 0 2 -1 2 0 1 0 2 -1 1 0 3 -1 0 0 2 -1 1 0 2 -1 2 0 1 0 2 -1 1 0 3 -1 0 0 3 -1 0 0 3 -1 1 0 2 -1 1 0 2 -1 0 0 1 -1 2 0 2 -1 0 0 3 -1 0 0 3 -1 1 0 2 -1 1 0 2 -1 2 0 1 -1 2 -1 0 0 3 -1c10,-4 19,-7 29,-11l-54 -78 -100 -142 -14 -21 -1 -174 0 -83c5,-4 10,-9 15,-14 24,-26 39,-60 39,-99 0,-38 -15,-73 -39,-99 -11,-11 -23,-21 -37,-28 -20,-11 -44,-18 -68,-18 -25,0 -48,6 -68,17 -14,8 -27,18 -38,29 -24,26 -38,61 -38,99 0,39 14,73 38,99 5,5 10,10 15,14l0 259 -15 20 -99 142 -54 77c18,7 36,14 54,20 6,2 11,4 17,5l1 1 9 2 0 0 3 1 0 0 3 1 0 0 2 1 3 1 1 0 2 0 2 1 1 0 2 0 1 1 2 0 1 1 2 0 1 0 3 1 0 0 3 1 0 0 3 0 0 0 3 1 1 0 2 1 1 0 3 0 2 1 2 0 6 1 1 1 2 0 1 0 3 1 0 0 3 0 0 0 3 1 4 0c13,2 25,4 38,5 22,3 45,4 68,4l0 0c23,0 46,-1 68,-4 12,-1 25,-3 37,-5l6 -1 2 0 1 0 4 -1 0 0 1 0 3 -1 0 0 3 0 0 0 3 -1 1 0 2 0 2 -1 3 0 1 -1 3 0 0 0 3 -1 0 0 4 -1 2 0z"/>
   <path class="fil1" d="M512 1749c-19,2 -39,3 -59,3l0 11 118 0 0 -22c-7,2 -15,3 -22,4 -12,2 -25,3 -37,4z"/>
   <path class="fil1" d="M590 1862l0 62c20,-3 39,-7 59,-12 19,-4 39,-9 58,-15l0 -35 -117 0z"/>
   <polygon class="fil1" points="590,1779 590,1847 707,1847 707,1779 "/>
   <path class="fil1" d="M1466 1090c0,6 0,12 -1,18 1,-6 1,-12 1,-18zm-1466 862l0 -79c12,6 24,12 36,18l0 0c30,15 61,27 93,38 36,13 73,23 110,31 33,8 66,13 99,17 13,1 25,2 38,3 22,2 45,2 68,2 23,0 45,0 68,-2 12,-1 25,-2 37,-3 34,-4 67,-9 100,-17 37,-8 74,-18 110,-31 38,-13 75,-29 110,-47l0 0c314,-157 529,-481 529,-855 0,-416 -267,-771 -639,-901 -36,-12 -73,-23 -110,-31 -29,-6 -59,-11 -89,-15l0 41c18,4 31,21 31,40 0,23 -19,41 -42,41 -16,0 -29,-8 -37,-20 -4,-6 -6,-14 -6,-21 0,-8 2,-15 6,-21 6,-10 15,-16 26,-19l0 -44c-9,0 -17,-1 -26,-2 -16,-1 -32,-2 -48,-2l0 116c21,5 38,19 48,36 7,11 10,24 10,38 0,14 -3,27 -10,38 -13,23 -39,39 -68,39 -29,0 -55,-15 -68,-38 -7,-11 -11,-25 -11,-39 0,-14 4,-27 11,-39 10,-17 27,-30 47,-35l0 -116c-16,0 -32,1 -47,2 -9,1 -18,2 -26,2l0 44c11,3 20,10 26,20 3,6 5,12 5,20 0,7 -2,14 -5,20 -8,13 -22,21 -38,21 -23,0 -42,-18 -42,-41 0,-19 13,-36 31,-40l0 -41c-30,4 -59,9 -88,15 -37,8 -74,19 -110,31 -45,16 -88,34 -129,56l0 -81c137,-65 290,-100 450,-99 5,0 11,0 16,1 8,0 16,0 24,0 9,1 17,1 26,2 2,0 3,0 4,0 12,1 24,2 36,3 514,57 897,482 914,983 1,27 1,55 0,83 -1,22 -3,44 -5,66 -46,413 -333,742 -706,863 0,0 0,0 0,0 0,0 -1,0 -1,0 -18,6 -36,11 -54,16l0 0c-115,30 -238,41 -363,28 -1,0 -2,0 -3,0 0,0 0,0 0,0 -2,0 -5,0 -7,-1 -13,-1 -25,-3 -38,-5 -2,0 -4,0 -6,-1 -15,-2 -31,-5 -46,-8 -1,0 -1,0 -2,0 0,0 0,0 0,0 -84,-17 -164,-44 -239,-80zm1462 -809c1,-6 1,-11 2,-17 -1,5 -1,9 -2,13 0,2 0,3 0,4zm-1018 -919c22,0 39,18 39,39 0,22 -17,39 -39,39 -22,0 -40,-17 -40,-39 0,-21 18,-39 40,-39zm-106 -84c12,0 22,9 22,21 0,11 -10,21 -22,21 -11,0 -21,-10 -21,-21 0,-12 10,-21 21,-21zm232 21c0,11 -9,21 -21,21 -12,0 -22,-10 -22,-21 0,-12 10,-21 22,-21 12,0 21,9 21,21z"/>
  </g>
 </g>
</svg>
