<?xml version="1.0" encoding="UTF-8"?>
<!DOCTYPE svg PUBLIC "-//W3C//DTD SVG 1.1//EN" "http://www.w3.org/Graphics/SVG/1.1/DTD/svg11.dtd">
<!-- Creator: CorelDRAW X7 -->
<svg xmlns="http://www.w3.org/2000/svg" xml:space="preserve" width="0.284217in" height="0.2in" version="1.1" style="shape-rendering:geometricPrecision; text-rendering:geometricPrecision; image-rendering:optimizeQuality; fill-rule:evenodd; clip-rule:evenodd"
viewBox="0 0 6375 4486"
 xmlns:xlink="http://www.w3.org/1999/xlink">
 <defs>
  <style type="text/css">
   <![CDATA[
    .fil0 {fill:white}
   ]]>
  </style>
 </defs>
 <g id="Layer_x0020_1_0">
  <metadata id="CorelCorpID_0Corel-Layer"/>
  <g id="_1462659856">
   <path class="fil0" d="M597 0l985 0 136 194 382 546 164 234 6 8 0 657 -631 0 0 -458 -547 -782c-422,393 -708,928 -784,1529l1830 0c-15,32 -28,65 -38,100 -20,68 -31,141 -31,216 0,75 11,147 31,216 33,111 92,212 170,295l0 743 -170 241 -382 543 -143 204 -979 0c-239,-237 -442,-511 -596,-815l0 -885 347 0c112,508 376,958 743,1301l549 -785 0 -743 -1639 0 0 -1744c155,-303 357,-578 597,-815z"/>
   <path class="fil0" d="M1826 0l769 0 215 307 2 3 217 -310 769 0 -276 395 -347 495 -49 70 -1 0 0 607c-25,-12 -51,-22 -77,-31 -75,-26 -155,-40 -238,-40 -83,0 -162,14 -236,39 -27,9 -54,20 -79,32l0 -611 -50 -72 -345 -492 -274 -392z"/>
   <path class="fil0" d="M4037 0l986 0c509,502 848,1176 923,1928l0 0c10,104 16,209 16,316 0,106 -6,211 -16,315l-1967 0 0 736 553 789c365,-342 629,-791 740,-1298l643 0c-115,660 -435,1249 -891,1700l-977 0 -143 -203 -382 -544 -173 -245 0 -738c79,-84 139,-188 173,-302 19,-67 29,-137 29,-210 0,-74 -10,-144 -29,-211 -11,-36 -24,-71 -40,-105l1829 0c-75,-601 -362,-1137 -784,-1530l-548 783 0 458 -630 0 0 -657 6 -8 167 -238 382 -546 133 -190z"/>
   <path class="fil0" d="M3334 4486l-1048 0 -2 0 -2 -1 -8 -2 -3 -1 -7 -1 -5 -1 -5 -2 -6 -1 -5 -1 -6 -2 -4 -1 -10 -3 -9 -2 -1 -1 -10 -2 0 0 -11 -3 0 0 -30 -9 -4 -1c-19,-6 -39,-12 -58,-18 -63,-21 -126,-45 -187,-71l187 -267 345 -492 50 -71 0 -898c-18,-15 -35,-31 -50,-47 -84,-91 -135,-211 -135,-344 0,-133 51,-254 135,-345 37,-40 80,-73 129,-100 70,-38 151,-59 236,-59 86,0 167,22 238,60 47,26 90,60 127,99 84,91 135,212 135,345 0,133 -51,253 -135,344 -16,16 -32,32 -50,47l0 286 1 607 49 70 347 495 188 269c-33,14 -66,27 -99,40l-10 3 -2 1 -8 3 -3 1 -7 3 -5 2 -5 1 -7 3 -2 1 -10 3 0 0 -10 4 -2 0 -8 3 -4 1 -6 2 0 0 -6 2 -4 1 -8 3 -2 1 -10 3 0 0 -10 3 -2 0 -8 3 -4 1 -6 2 -6 2 -5 1 -7 2 -3 1 -9 3 -1 0 -10 3 -2 0 -8 2 -4 2 -6 1 -6 2 -5 1 -7 2 -3 1 -10 2 0 0 -10 3 -2 0 -8 2 -4 1 -7 2 -5 1z"/>
   <path class="fil0" d="M6361 2462c-2,20 -3,40 -4,60 1,-20 2,-40 4,-60zm-6338 -2462l348 0c-138,150 -262,312 -371,486l0 -457 23 -29zm5225 0l329 0c477,587 768,1324 796,2116 3,96 3,192 -1,289 -4,75 -9,152 -18,228 -78,706 -358,1341 -777,1853l-328 0c544,-590 875,-1377 875,-2242 0,-866 -332,-1654 -876,-2244zm-4877 4486l-330 0 -41 -51 0 -434c109,173 233,335 371,485zm5974 -1841c2,-19 4,-39 6,-58 -1,15 -2,30 -4,45 -1,4 -1,9 -2,13z"/>
  </g>
 </g>
</svg>
