<?xml version="1.0" encoding="UTF-8"?>
<!DOCTYPE svg PUBLIC "-//W3C//DTD SVG 1.1//EN" "http://www.w3.org/Graphics/SVG/1.1/DTD/svg11.dtd">
<!-- Creator: CorelDRAW X7 -->
<svg xmlns="http://www.w3.org/2000/svg" xml:space="preserve" width="2.53333in" height="0.333335in" version="1.1" style="shape-rendering:geometricPrecision; text-rendering:geometricPrecision; image-rendering:optimizeQuality; fill-rule:evenodd; clip-rule:evenodd"
viewBox="0 0 80774 10628"
 xmlns:xlink="http://www.w3.org/1999/xlink">
 <defs>
  <style type="text/css">
   <![CDATA[
    .fil2 {fill:none}
    .fil0 {fill:#F58634}
    .fil1 {fill:white}
    .fil3 {fill:white;fill-rule:nonzero}
   ]]>
  </style>
   <clipPath id="id0">
    <path d="M0 0l80774 0 0 10628 -80774 0 0 -10628z"/>
   </clipPath>
 </defs>
 <g id="Layer_x0020_1">
  <metadata id="CorelCorpID_0Corel-Layer"/>
  <polygon class="fil0" points="0,0 80774,0 80774,10628 0,10628 "/>
  <g style="clip-path:url(#id0)">
   <g id="_1633254336">
    <path id="1" class="fil1" d="M6060 -6172c-2940,272 -5316,1437 -7153,3475 -1567,1736 -2984,4600 -2710,7893 129,1551 553,2934 1160,4101 323,621 654,1123 1031,1612 441,575 805,930 1291,1391 1711,1627 4628,2957 7895,2717 5612,-412 10243,-5268 9818,-11353 -180,-2581 -1184,-4666 -2812,-6468 -2057,-2277 -5394,-3657 -8520,-3368zm-5435 13542l1610 -583 -1133 4396 11195 3 685 -2577 -6957 -7 994 -3590 1822 -703 454 -1721 -1852 691 1445 -5614 -4216 -8 -1951 7382 -1633 610 -463 1721z"/>
   </g>
  </g>
  <polygon class="fil2" points="0,0 80774,0 80774,10628 0,10628 "/>
  <path class="fil3" d="M24278 6562c-147,0 -275,-39 -385,-115 -111,-77 -194,-182 -250,-314l-22 0 -158 382 -282 0 745 -3511 379 0c-78,364 -136,643 -178,836 -41,193 -98,420 -170,679l20 0c140,-177 278,-308 415,-392 135,-83 276,-125 420,-125 212,0 377,75 497,223 118,150 178,354 178,614 0,315 -52,605 -155,872 -103,268 -247,476 -431,626 -184,150 -392,225 -623,225zm419 -2246c-145,0 -292,72 -441,214 -149,143 -269,323 -357,540 -87,216 -131,438 -131,665 0,166 41,292 125,381 83,88 204,131 361,131 150,0 288,-60 417,-182 129,-122 232,-296 310,-521 78,-224 118,-463 118,-716 0,-341 -135,-512 -402,-512zm1146 -272l379 0 167 1229c16,104 30,256 44,459 15,201 22,365 22,488l13 0c53,-131 118,-281 197,-452 78,-169 135,-287 173,-351l733 -1373 402 0 -1570 2890c-140,259 -279,439 -415,539 -137,101 -302,151 -494,151 -109,0 -214,-15 -316,-47l0 -303c95,27 193,41 295,41 124,0 229,-38 317,-114 89,-76 173,-189 256,-337l171 -307 -374 -2513zm3725 2471l-795 -2588 -20 0c29,527 43,878 43,1054l0 1534 -625 0 0 -3299 953 0 780 2523 14 0 828 -2523 952 0 0 3299 -652 0 0 -1561c0,-73 1,-159 4,-255 2,-96 12,-352 30,-767l-20 0 -851 2583 -641 0zm4979 0l-239 -785 -1203 0 -239 785 -754 0 1165 -3312 854 0 1170 3312 -754 0zm-406 -1372c-221,-711 -346,-1114 -374,-1207 -27,-93 -48,-167 -59,-221 -50,192 -193,668 -427,1428l860 0zm1575 1372l0 -3299 699 0 0 3299 -699 0zm1529 0l0 -3299 699 0 0 2722 1339 0 0 577 -2038 0zm5083 0l-699 0 0 -2716 -896 0 0 -583 2491 0 0 583 -896 0 0 2716zm2103 -1834l226 0c221,0 384,-37 489,-111 105,-73 158,-189 158,-347 0,-156 -54,-268 -161,-334 -108,-67 -274,-100 -500,-100l-212 0 0 892zm0 568l0 1266 -699 0 0 -3299 961 0c448,0 780,82 994,245 216,164 323,412 323,743 0,195 -53,367 -160,519 -106,151 -257,269 -453,355 496,741 819,1221 970,1437l-777 0 -787 -1266 -372 0zm4371 1266l-239 -785 -1203 0 -239 785 -754 0 1165 -3312 854 0 1169 3312 -753 0zm-406 -1372c-221,-711 -346,-1114 -374,-1207 -27,-93 -48,-167 -59,-221 -50,192 -193,668 -427,1428l860 0zm4501 1372l-889 0 -1435 -2495 -20 0c28,441 43,755 43,943l0 1552 -625 0 0 -3299 882 0 1432 2472 17 0c-24,-429 -34,-733 -34,-910l0 -1562 629 0 0 3299zm2778 -914c0,298 -108,532 -322,703 -214,172 -512,258 -894,258 -352,0 -664,-67 -935,-199l0 -650c223,99 412,169 566,210 154,41 295,61 423,61 154,0 271,-29 353,-88 82,-58 123,-146 123,-262 0,-64 -18,-122 -54,-172 -36,-51 -89,-99 -159,-146 -70,-47 -213,-121 -428,-223 -201,-95 -353,-186 -454,-273 -101,-87 -181,-189 -241,-305 -61,-116 -91,-251 -91,-406 0,-292 100,-521 297,-688 198,-168 472,-251 821,-251 171,0 335,20 491,61 155,41 318,98 488,172l-225 544c-177,-73 -322,-123 -437,-152 -116,-28 -229,-43 -340,-43 -132,0 -234,31 -305,93 -70,61 -106,142 -106,242 0,61 15,115 43,161 29,46 74,90 137,133 62,43 210,120 443,231 309,148 520,296 635,443 114,149 171,330 171,546zm1286 914l-689 0 0 -3299 1891 0 0 573 -1202 0 0 851 1119 0 0 572 -1119 0 0 1303zm3747 0l-1900 0 0 -3299 1900 0 0 573 -1201 0 0 726 1117 0 0 573 -1117 0 0 850 1201 0 0 577zm1387 -1834l225 0c221,0 385,-37 489,-111 106,-73 158,-189 158,-347 0,-156 -54,-268 -161,-334 -108,-67 -274,-100 -500,-100l-211 0 0 892zm0 568l0 1266 -700 0 0 -3299 961 0c449,0 780,82 995,245 215,164 322,412 322,743 0,195 -53,367 -160,519 -106,151 -257,269 -453,355 496,741 820,1221 970,1437l-776 0 -787 -1266 -372 0z"/>
 </g>
</svg>
