<?xml version="1.0" encoding="UTF-8"?>
<!DOCTYPE svg PUBLIC "-//W3C//DTD SVG 1.1//EN" "http://www.w3.org/Graphics/SVG/1.1/DTD/svg11.dtd">
<!-- Creator: CorelDRAW X7 -->
<svg xmlns="http://www.w3.org/2000/svg" xml:space="preserve" width="2.53333in" height="0.333335in" version="1.1" style="shape-rendering:geometricPrecision; text-rendering:geometricPrecision; image-rendering:optimizeQuality; fill-rule:evenodd; clip-rule:evenodd"
viewBox="0 0 253333 33333"
 xmlns:xlink="http://www.w3.org/1999/xlink">
 <defs>
  <style type="text/css">
   <![CDATA[
    .fil2 {fill:none}
    .fil0 {fill:#F58634}
    .fil1 {fill:white}
    .fil3 {fill:white;fill-rule:nonzero}
   ]]>
  </style>
   <clipPath id="id0">
    <path d="M0 0l253333 0 0 33333 -253333 0 0 -33333z"/>
   </clipPath>
 </defs>
 <g id="Layer_x0020_1">
  <metadata id="CorelCorpID_0Corel-Layer"/>
  <polygon class="fil0" points="0,0 253333,0 253333,33333 0,33333 "/>
  <g style="clip-path:url(#id0)">
   <g id="_1614776576">
    <path id="1" class="fil1" d="M19007 -19357c-9222,852 -16673,4507 -22436,10898 -4912,5446 -9357,14428 -8498,24756 405,4864 1733,9201 3637,12862 1013,1946 2053,3521 3233,5056 1386,1801 2527,2914 4051,4363 5366,5101 14513,9272 24760,8519 17602,-1292 32125,-16522 30793,-35605 -565,-8094 -3715,-14635 -8820,-20286 -6451,-7140 -16918,-11469 -26720,-10563zm-17046 42472l5049 -1829 -3554 13788 35113 8 2146 -8081 -21818 -23 3116 -11258 5714 -2205 1424 -5398 -5807 2167 4532 -17606 -13224 -27 -6117 23154 -5122 1913 -1452 5397z"/>
   </g>
  </g>
  <polygon class="fil2" points="0,0 253333,0 253333,33333 0,33333 "/>
  <path class="fil3" d="M82446 13182c-827,0 -1464,309 -1918,930 -452,620 -679,1485 -679,2593 0,2307 865,3462 2597,3462 724,0 1605,-182 2637,-546l0 1840c-848,355 -1797,531 -2843,531 -1505,0 -2654,-456 -3451,-1369 -797,-913 -1196,-2224 -1196,-3932 0,-1074 196,-2017 587,-2826 392,-809 954,-1430 1686,-1862 734,-432 1594,-647 2580,-647 1004,0 2011,244 3026,729l-708 1783c-387,-184 -775,-343 -1166,-481 -392,-137 -776,-205 -1152,-205zm13940 3480c0,1715 -422,3031 -1273,3951 -850,920 -2067,1379 -3651,1379 -1585,0 -2802,-459 -3652,-1379 -850,-920 -1273,-2241 -1273,-3963 0,-1722 425,-3038 1277,-3946 851,-908 2073,-1363 3662,-1363 1589,0 2807,457 3647,1372 843,916 1263,2232 1263,3949zm-7550 0c0,1157 220,2027 657,2614 440,584 1097,876 1969,876 1750,0 2625,-1164 2625,-3490 0,-2331 -870,-3495 -2611,-3495 -874,0 -1531,295 -1976,882 -441,587 -664,1459 -664,2613zm9693 5186l0 -10347 2192 0 0 10347 -2192 0zm13974 0l-2787 0 -4502 -7828 -63 0c89,1384 135,2369 135,2959l0 4869 -1961 0 0 -10347 2768 0 4492 7750 51 0c-73,-1345 -107,-2297 -107,-2852l0 -4898 1974 0 0 10347zm15759 -5186c0,1715 -422,3031 -1273,3951 -850,920 -2067,1379 -3651,1379 -1585,0 -2802,-459 -3652,-1379 -850,-920 -1273,-2241 -1273,-3963 0,-1722 425,-3038 1277,-3946 851,-908 2073,-1363 3662,-1363 1589,0 2806,457 3647,1372 843,916 1263,2232 1263,3949zm-7550 0c0,1157 220,2027 657,2614 439,584 1097,876 1969,876 1750,0 2625,-1164 2625,-3490 0,-2331 -870,-3495 -2611,-3495 -874,0 -1531,295 -1976,882 -442,587 -664,1459 -664,2613zm11885 -292l722 0c677,0 1182,-133 1515,-401 335,-266 502,-654 502,-1164 0,-514 -140,-894 -420,-1140 -280,-244 -720,-367 -1321,-367l-998 0 0 3072zm4954 -1642c0,1113 -348,1966 -1043,2555 -696,589 -1686,884 -2969,884l-942 0 0 3681 -2192 0 0 -10347 3303 0c1256,0 2210,270 2865,809 652,541 978,1347 978,2418zm7912 7120l-5958 0 0 -10347 5958 0 0 1797 -3765 0 0 2275 3502 0 0 1797 -3502 0 0 2666 3765 0 0 1812zm4350 -5754l707 0c694,0 1206,-115 1534,-347 331,-230 495,-594 495,-1090 0,-490 -169,-840 -505,-1048 -338,-207 -860,-311 -1567,-311l-664 0 0 2796zm0 1783l0 3971 -2193 0 0 -10347 3014 0c1406,0 2444,256 3118,768 676,512 1012,1290 1012,2331 0,608 -167,1149 -502,1625 -334,473 -807,845 -1421,1114 1556,2325 2570,3830 3041,4509l-2434 0 -2469 -3971 -1166 0zm13708 3971l-751 -2464 -3772 0 -749 2464 -2365 0 3652 -10391 2681 0 3667 10391 -2363 0zm-1275 -4304c-693,-2232 -1084,-3495 -1171,-3787 -87,-292 -150,-524 -186,-694 -157,604 -604,2097 -1338,4481l2695 0zm7918 4304l-2193 0 0 -8521 -2809 0 0 -1826 7811 0 0 1826 -2809 0 0 8521zm4403 0l0 -10347 2193 0 0 10347 -2193 0zm14186 -5186c0,1715 -422,3031 -1273,3951 -850,920 -2067,1379 -3651,1379 -1585,0 -2802,-459 -3652,-1379 -850,-920 -1273,-2241 -1273,-3963 0,-1722 425,-3038 1278,-3946 850,-908 2072,-1363 3661,-1363 1589,0 2807,457 3647,1372 843,916 1263,2232 1263,3949zm-7550 0c0,1157 220,2027 657,2614 440,584 1097,876 1969,876 1751,0 2625,-1164 2625,-3490 0,-2331 -870,-3495 -2611,-3495 -874,0 -1531,295 -1976,882 -441,587 -664,1459 -664,2613zm18870 5186l-2787 0 -4502 -7828 -63 0c90,1384 136,2369 136,2959l0 4869 -1961 0 0 -10347 2767 0 4493 7750 50 0c-72,-1345 -106,-2297 -106,-2852l0 -4898 1973 0 0 10347zm8714 -2870c0,935 -338,1669 -1009,2208 -671,538 -1609,806 -2806,806 -1104,0 -2083,-207 -2930,-623l0 -2038c698,311 1290,531 1773,659 483,128 925,191 1326,191 483,0 852,-92 1108,-275 259,-184 387,-459 387,-821 0,-203 -56,-384 -169,-541 -114,-160 -281,-312 -500,-457 -220,-147 -667,-382 -1341,-700 -633,-300 -1109,-585 -1425,-858 -316,-273 -567,-592 -756,-956 -191,-362 -285,-788 -285,-1273 0,-915 312,-1635 933,-2159 620,-524 1478,-785 2572,-785 538,0 1050,63 1541,191 487,128 997,307 1531,538l-708 1706c-553,-228 -1009,-385 -1369,-474 -363,-89 -717,-135 -1065,-135 -416,0 -735,96 -957,290 -222,193 -333,446 -333,758 0,193 46,362 135,505 90,145 232,282 428,418 195,135 659,377 1391,724 968,464 1630,928 1990,1391 357,467 538,1034 538,1710z"/>
 </g>
</svg>
