<?xml version="1.0" encoding="UTF-8"?>
<!DOCTYPE svg PUBLIC "-//W3C//DTD SVG 1.1//EN" "http://www.w3.org/Graphics/SVG/1.1/DTD/svg11.dtd">
<!-- Creator: CorelDRAW X7 -->
<svg xmlns="http://www.w3.org/2000/svg" xml:space="preserve" width="2.53333in" height="0.333335in" version="1.1" style="shape-rendering:geometricPrecision; text-rendering:geometricPrecision; image-rendering:optimizeQuality; fill-rule:evenodd; clip-rule:evenodd"
viewBox="0 0 222940 29334"
 xmlns:xlink="http://www.w3.org/1999/xlink">
 <defs>
  <style type="text/css">
   <![CDATA[
    .fil2 {fill:none}
    .fil0 {fill:#F58634}
    .fil1 {fill:white}
    .fil3 {fill:white;fill-rule:nonzero}
   ]]>
  </style>
   <clipPath id="id0">
    <path d="M0 0l222940 0 0 29334 -222940 0 0 -29334z"/>
   </clipPath>
 </defs>
 <g id="Layer_x0020_1">
  <metadata id="CorelCorpID_0Corel-Layer"/>
  <polygon class="fil0" points="0,0 222940,0 222940,29334 0,29334 "/>
  <g style="clip-path:url(#id0)">
   <g id="_1532613008">
    <path id="1" class="fil1" d="M16727 -17035c-8116,750 -14673,3967 -19744,9590 -4324,4794 -8235,12698 -7479,21787 356,4280 1525,8097 3201,11318 891,1713 1806,3099 2845,4450 1219,1585 2224,2565 3565,3840 4722,4488 12772,8159 21789,7497 15491,-1137 28271,-14540 27099,-31334 -498,-7123 -3269,-12879 -7762,-17852 -5677,-6284 -14888,-10093 -23514,-9296zm-15002 37377l4444 -1610 -3128 12134 30901 7 1889 -7111 -19201 -21 2742 -9907 5028 -1941 1254 -4750 -5111 1907 3989 -15494 -11638 -23 -5383 20376 -4507 1683 -1279 4750z"/>
   </g>
  </g>
  <polygon class="fil2" points="0,0 222940,0 222940,29334 0,29334 "/>
  <path class="fil3" d="M65992 11600c-727,0 -1288,272 -1688,819 -398,546 -597,1307 -597,2282 0,2030 761,3046 2285,3046 637,0 1413,-159 2321,-480l0 1619c-747,313 -1582,468 -2502,468 -1324,0 -2336,-402 -3037,-1205 -702,-804 -1052,-1958 -1052,-3461 0,-945 172,-1774 516,-2486 345,-712 840,-1259 1484,-1639 646,-380 1403,-570 2270,-570 884,0 1770,215 2663,642l-623 1569c-340,-162 -682,-302 -1026,-423 -345,-121 -683,-181 -1014,-181zm9834 7626l-661 -2167 -3320 0 -659 2167 -2081 0 3214 -9143 2359 0 3227 9143 -2079 0zm-1122 -3787c-610,-1964 -954,-3076 -1031,-3333 -76,-257 -132,-461 -164,-610 -138,532 -531,1845 -1177,3943l2372 0zm9724 1262c0,823 -298,1469 -888,1943 -591,474 -1416,710 -2470,710 -971,0 -1832,-183 -2578,-548l0 -1794c614,274 1135,467 1560,580 425,113 814,168 1167,168 425,0 750,-81 975,-242 228,-162 340,-404 340,-723 0,-178 -49,-338 -148,-476 -100,-140 -247,-274 -440,-402 -194,-130 -587,-336 -1180,-616 -557,-264 -976,-515 -1254,-755 -279,-240 -500,-521 -665,-842 -168,-318 -251,-692 -251,-1120 0,-805 274,-1439 820,-1900 546,-461 1301,-691 2264,-691 474,0 925,56 1356,169 429,112 878,269 1347,473l-622 1501c-487,-200 -889,-338 -1205,-417 -319,-78 -632,-119 -938,-119 -365,0 -646,85 -841,255 -196,171 -294,394 -294,668 0,170 41,318 119,444 79,127 204,249 377,368 172,119 580,331 1224,637 852,408 1434,817 1751,1225 315,410 474,909 474,1504zm9105 2525l-1923 0 0 -3927 -3605 0 0 3927 -1930 0 0 -9105 1930 0 0 3571 3605 0 0 -3571 1923 0 0 9105zm13877 -4563c0,1509 -371,2668 -1120,3477 -748,810 -1819,1214 -3213,1214 -1395,0 -2466,-404 -3214,-1214 -748,-809 -1120,-1972 -1120,-3488 0,-1515 374,-2673 1124,-3473 749,-799 1824,-1198 3222,-1198 1399,0 2470,402 3210,1207 742,806 1111,1964 1111,3475zm-6644 0c0,1018 194,1783 579,2300 386,514 964,771 1732,771 1541,0 2310,-1024 2310,-3071 0,-2051 -765,-3075 -2298,-3075 -769,0 -1347,259 -1738,775 -389,517 -585,1284 -585,2300zm10460 -257l635 0c595,0 1040,-117 1333,-353 295,-234 442,-576 442,-1024 0,-453 -123,-787 -370,-1003 -246,-215 -633,-324 -1163,-324l-877 0 0 2704zm4359 -1445c0,979 -306,1730 -918,2248 -612,519 -1484,778 -2612,778l-829 0 0 3239 -1930 0 0 -9105 2907 0c1106,0 1945,238 2521,712 574,476 861,1186 861,2128zm6963 6265l-5243 0 0 -9105 5243 0 0 1581 -3314 0 0 2002 3082 0 0 1582 -3082 0 0 2346 3314 0 0 1594zm3828 -5062l622 0c610,0 1061,-102 1350,-306 291,-202 436,-523 436,-959 0,-431 -149,-740 -445,-922 -297,-183 -756,-275 -1379,-275l-584 0 0 2462zm0 1568l0 3494 -1930 0 0 -9105 2652 0c1237,0 2151,225 2744,676 595,450 891,1135 891,2051 0,536 -147,1012 -442,1430 -294,417 -710,744 -1250,980 1369,2047 2261,3371 2676,3968l-2142 0 -2173 -3494 -1026 0zm12064 3494l-661 -2167 -3320 0 -659 2167 -2081 0 3214 -9143 2359 0 3226 9143 -2078 0zm-1123 -3787c-610,-1964 -954,-3076 -1031,-3333 -76,-257 -131,-461 -163,-610 -138,532 -532,1845 -1178,3943l2372 0zm6968 3787l-1930 0 0 -7498 -2472 0 0 -1607 6874 0 0 1607 -2472 0 0 7498zm3875 0l0 -9105 1930 0 0 9105 -1930 0zm12484 -4563c0,1509 -371,2668 -1120,3477 -748,810 -1819,1214 -3213,1214 -1395,0 -2466,-404 -3214,-1214 -748,-809 -1120,-1972 -1120,-3488 0,-1515 374,-2673 1124,-3473 748,-799 1824,-1198 3222,-1198 1399,0 2470,402 3210,1207 742,806 1111,1964 1111,3475zm-6644 0c0,1018 193,1783 578,2300 387,514 965,771 1733,771 1540,0 2310,-1024 2310,-3071 0,-2051 -765,-3075 -2298,-3075 -769,0 -1347,259 -1738,775 -389,517 -585,1284 -585,2300zm16606 4563l-2452 0 -3962 -6888 -56 0c79,1218 120,2085 120,2604l0 4284 -1726 0 0 -9105 2435 0 3954 6821 44 0c-63,-1184 -93,-2022 -93,-2511l0 -4310 1736 0 0 9105zm7669 -2525c0,823 -298,1469 -888,1943 -591,474 -1416,710 -2470,710 -971,0 -1832,-183 -2578,-548l0 -1794c614,274 1135,467 1560,580 425,113 814,168 1167,168 425,0 750,-81 975,-242 228,-162 340,-404 340,-723 0,-178 -49,-338 -148,-476 -100,-140 -247,-274 -440,-402 -194,-130 -587,-336 -1180,-616 -557,-264 -976,-515 -1254,-755 -279,-240 -500,-521 -665,-842 -168,-318 -251,-692 -251,-1120 0,-805 274,-1439 820,-1900 546,-461 1301,-691 2264,-691 474,0 925,56 1356,169 429,112 878,269 1347,473l-622 1501c-487,-200 -889,-338 -1205,-417 -319,-78 -632,-119 -938,-119 -365,0 -646,85 -841,255 -196,171 -294,394 -294,668 0,170 41,318 119,444 79,127 204,249 377,368 172,119 580,331 1224,637 852,408 1434,817 1751,1225 315,410 474,909 474,1504z"/>
 </g>
</svg>
