<?xml version="1.0" encoding="UTF-8"?>
<!DOCTYPE svg PUBLIC "-//W3C//DTD SVG 1.1//EN" "http://www.w3.org/Graphics/SVG/1.1/DTD/svg11.dtd">
<!-- Creator: CorelDRAW X7 -->
<svg xmlns="http://www.w3.org/2000/svg" xml:space="preserve" width="2.53333in" height="0.333335in" version="1.1" style="shape-rendering:geometricPrecision; text-rendering:geometricPrecision; image-rendering:optimizeQuality; fill-rule:evenodd; clip-rule:evenodd"
viewBox="0 0 6461 850"
 xmlns:xlink="http://www.w3.org/1999/xlink">
 <defs>
  <style type="text/css">
   <![CDATA[
    .fil2 {fill:none}
    .fil0 {fill:#F58634}
    .fil1 {fill:white}
    .fil3 {fill:#FEFEFE;fill-rule:nonzero}
   ]]>
  </style>
   <clipPath id="id0">
    <path d="M0 0l6461 0 0 850 -6461 0 0 -850z"/>
   </clipPath>
 </defs>
 <g id="Layer_x0020_1_0">
  <metadata id="CorelCorpID_0Corel-Layer"/>
  <polygon class="fil0" points="0,0 6461,0 6461,850 0,850 "/>
  <g style="clip-path:url(#id0)">
   <g id="_1478042512">
    <g>
     <path id="1" class="fil1" d="M448 927l0 45 87 0 0 -19c-15,-3 -29,-6 -44,-11 -14,-4 -29,-9 -43,-15z"/>
     <path class="fil1" d="M565 1046l-16 0 0 48c5,0 11,1 16,2 9,1 19,2 28,2 14,1 29,2 44,2l0 -54 -72 0z"/>
     <polygon class="fil1" points="448,984 448,1034 535,1034 535,984 "/>
     <polygon class="fil1" points="565,984 549,984 549,1034 637,1034 637,984 "/>
     <path class="fil1" d="M565 958c-5,0 -11,-1 -16,-2l0 16 88 0 0 -8c-15,0 -30,-1 -44,-2 -9,-1 -19,-2 -28,-4z"/>
     <path class="fil1" d="M491 745l37 -51 0 -159c-17,-18 -29,-40 -37,-64 -4,-14 -6,-30 -6,-46 0,-16 2,-31 6,-46 3,-7 5,-14 9,-21l-392 0c16,-129 77,-244 168,-328l117 168 0 98 135 0 0 -141 -2 -2 -35 -50 -81 -116 -103 -147c-22,13 -43,27 -64,42l0 0c-160,118 -265,305 -274,517l0 1c0,2 0,5 0,7l0 4c0,1 0,2 0,3l0 0c0,4 0,7 0,11 0,23 1,45 3,68l421 0 0 159 -118 168c-78,-74 -135,-170 -159,-279l-137 0c34,200 157,370 327,468l104 -147 81 -117z"/>
     <path class="fil1" d="M448 1046l0 25c14,5 29,9 43,12 15,3 29,6 44,9l0 -46 -87 0z"/>
     <path class="fil1" d="M377 1046c11,4 22,9 33,13 8,3 16,5 24,8l0 -21 -57 0z"/>
     <path class="fil1" d="M694 1046l-43 0 0 54c14,0 29,-1 43,-2 9,0 19,-1 28,-2 5,-1 11,-2 16,-2l0 -48 -44 0z"/>
     <path class="fil1" d="M410 937l-24 35 48 0 0 -50c-4,-2 -7,-3 -10,-5l-14 20z"/>
     <path class="fil1" d="M377 984l-33 46c3,2 6,3 8,4l82 0 0 -50 -57 0z"/>
     <path class="fil1" d="M491 29l74 105 11 15 0 131c5,-2 11,-4 17,-6 16,-6 33,-9 50,-9 18,0 35,3 51,9 6,2 12,4 17,6l0 -130 0 1 11 -16 74 -105 82 -117 64 -93c-21,-10 -42,-19 -64,-28 -22,-8 -44,-15 -66,-20l-16 22 -74 106 -28 39 -50 72 -1 0 -50 -73 -28 -39 -74 -105 -15 -22c-23,5 -45,12 -66,20 -22,8 -44,18 -65,28l65 92 81 117z"/>
     <polygon class="fil1" points="694,984 651,984 651,1034 738,1034 738,984 "/>
     <path class="fil1" d="M853 1046l0 21c9,-3 17,-6 25,-9 10,-4 21,-8 32,-12l-57 0z"/>
     <path class="fil1" d="M1089 -81l-2 -2c-1,-1 -2,-2 -3,-2 -1,-2 -3,-3 -4,-4l-3 -3c-2,-1 -3,-2 -4,-3l-3 -2c-2,-2 -4,-3 -5,-5l-2 -1c-2,-2 -4,-3 -6,-5l-1 0 0 0c-24,-19 -50,-36 -77,-52l-101 146 -82 117 -36 50 -1 2 0 141 135 0 0 -98 117 -168c90,84 152,199 168,328l-392 0c4,7 6,14 9,22 4,14 6,30 6,45 0,16 -2,31 -6,45 -7,25 -20,47 -37,65l0 158 37 52 82 117 103 147c170,-98 292,-268 327,-468l-137 0c-24,109 -81,205 -159,278l-118 -169 0 -157 421 0c2,-23 3,-45 3,-68 0,-23 -1,-45 -3,-67l0 0c-18,-175 -101,-330 -226,-439z"/>
     <path class="fil1" d="M752 953l0 19 87 0 0 -45c-14,6 -28,11 -43,15 -15,4 -29,8 -44,11z"/>
     <path class="fil1" d="M902 972l-24 -35 -14 -20c-4,2 -7,3 -11,5l0 50 49 0z"/>
     <path class="fil1" d="M878 984l-25 0 0 50 82 0c2,-1 5,-2 8,-4l-33 -46 -32 0z"/>
     <path class="fil1" d="M755 906l0 -1 2 0 1 0 1 -1 2 0 0 0 2 -1 0 0 3 0 0 0 2 -1 1 0 1 0 1 -1 1 0 2 0 0 -1 2 0 0 0 3 -1 0 0 2 0 1 -1 1 0 1 0 1 -1 2 0 0 0 2 -1 0 0 3 -1 0 0 2 0 1 -1 1 0 0 0 1 -1 1 0 2 0 0 -1 2 0 0 0 2 -1 1 0 1 -1 1 0 2 0 1 -1 1 0 1 -1 1 0 2 -1c7,-2 14,-5 21,-8l-40 -58 -74 -106 -11 -15 0 -130 0 -61c4,-3 7,-7 11,-10 18,-19 28,-45 28,-74 0,-28 -10,-54 -28,-73 -8,-9 -17,-16 -28,-22 -15,-8 -32,-13 -51,-13 -18,0 -35,5 -50,13 -10,6 -20,13 -28,22 -18,19 -29,45 -29,73 0,29 11,55 29,74 4,3 7,7 11,10l0 192 -11 15 -74 106 -40 57c14,6 27,11 40,15 5,1 9,3 13,4l1 0 6 2 0 0 2 1 0 0 3 0 0 0 2 1 2 0 1 1 1 0 1 0 1 1 2 0 1 0 1 0 1 1 1 0 1 0 2 1 0 0 2 0 0 0 3 1 0 0 2 0 0 0 2 1 1 0 2 0 1 1 1 0 5 1 1 0 2 0 0 0 2 1 1 0 2 0 0 0 2 1 3 0c9,2 19,3 28,4 17,1 33,2 50,2l0 0c18,0 35,-1 51,-2 9,-1 19,-2 28,-4l4 -1 2 0 1 0 2 -1 0 0 1 0 2 0 1 0 2 -1 0 0 2 0 1 0 1 -1 1 0 3 0 1 -1 2 0 0 0 2 0 0 0 3 -1 2 0z"/>
     <path class="fil1" d="M694 962c-14,1 -29,2 -43,2l0 8 87 0 0 -16c-5,1 -11,2 -16,2 -9,2 -19,3 -28,4z"/>
     <path class="fil1" d="M752 1046l0 46c15,-3 29,-6 44,-9 15,-4 29,-7 43,-12l0 -25 -87 0z"/>
     <polygon class="fil1" points="752,984 752,1034 839,1034 839,984 "/>
     <path class="fil1" d="M1404 472c-1,4 -1,9 -1,13 0,-4 0,-9 1,-13zm-4 39c1,-4 1,-8 1,-12 0,3 0,6 0,9 -1,1 -1,2 -1,3zm-1516 -147c-1,9 -1,19 -2,29 1,-10 1,-20 2,-29zm-2 31c0,10 0,20 0,29 0,-9 0,-19 0,-29zm4 -53c0,-3 1,-6 1,-9 -1,9 -2,18 -2,27 0,-6 0,-12 1,-18zm6 -39c0,-1 0,-2 0,-3 -1,7 -2,14 -3,21 1,-6 2,-12 3,-18zm751 -475c17,0 30,13 30,29 0,16 -13,29 -30,29 -16,0 -29,-13 -29,-29 0,-16 13,-29 29,-29zm-78 -62c9,0 16,7 16,15 0,9 -7,16 -16,16 -9,0 -16,-7 -16,-16 0,-8 7,-15 16,-15zm173 15c0,9 -8,16 -16,16 -9,0 -16,-7 -16,-16 0,-8 7,-15 16,-15 8,0 16,7 16,15zm222 1279l0 1c-27,13 -54,25 -82,34 -27,10 -54,17 -82,24 -25,5 -49,9 -74,12 -9,1 -19,2 -28,2 -16,1 -33,2 -51,2 -17,0 -33,-1 -50,-2 -9,0 -19,-1 -28,-2 -25,-3 -49,-7 -74,-12 -27,-6 -55,-14 -81,-23 -24,-9 -47,-18 -69,-29l0 0c-241,-114 -407,-358 -407,-642 0,-310 199,-573 476,-670 26,-9 54,-17 81,-23 22,-4 44,-8 66,-11l0 30c-14,4 -23,16 -23,30 0,17 14,31 31,31 12,0 22,-6 28,-16 2,-4 4,-9 4,-15 0,-5 -2,-10 -4,-15 -4,-7 -11,-12 -19,-15l0 -32c6,0 12,-1 19,-1 11,-1 23,-2 35,-2l0 86c-15,4 -27,14 -35,27 -5,8 -8,18 -8,28 0,11 3,21 8,29 10,17 29,28 50,28 22,0 41,-11 51,-28 5,-9 8,-18 8,-29 0,-10 -3,-20 -8,-28 -7,-13 -20,-23 -35,-27l0 -86c12,0 24,1 35,2 7,0 13,1 19,1l0 32c-8,3 -15,8 -19,15 -2,4 -4,9 -4,15 0,6 2,11 4,16 6,9 16,15 28,15 17,0 31,-14 31,-31 0,-14 -10,-26 -23,-30l0 -30c22,3 44,7 66,11 28,6 55,14 82,24 276,96 475,360 475,669 0,278 -160,519 -393,635zm446 -662c-13,-372 -297,-688 -679,-730 -9,-1 -18,-2 -26,-2 -2,0 -3,-1 -4,-1 -6,0 -13,0 -19,-1 -6,0 -12,0 -18,0 -4,0 -8,-1 -12,-1 -262,-2 -500,129 -640,334l2 3c-60,88 -102,191 -120,302 -2,13 -4,26 -5,40 -44,395 223,752 606,830 0,0 0,0 0,0 1,0 1,0 2,0 11,2 23,4 34,6 2,0 3,0 5,1 9,1 18,2 28,3 1,1 3,1 5,1 0,0 0,0 0,0 1,0 1,0 2,0 93,9 184,1 270,-21l0 0c14,-4 27,-8 40,-12 0,0 1,0 1,0 0,0 0,0 0,0 277,-90 490,-334 524,-641 2,-17 3,-33 4,-49 1,-21 1,-42 0,-62z"/>
    </g>
   </g>
  </g>
  <polygon class="fil2" points="0,0 6461,0 6461,850 0,850 "/>
  <path class="fil3" d="M1918 336c-21,0 -38,8 -49,24 -12,16 -18,38 -18,66 0,59 22,88 67,88 18,0 41,-4 67,-14l0 47c-22,9 -46,14 -73,14 -38,0 -67,-12 -88,-35 -20,-23 -30,-57 -30,-100 0,-28 5,-52 15,-72 10,-21 24,-37 43,-48 19,-11 40,-16 66,-16 25,0 51,6 77,18l-18 46c-10,-5 -20,-9 -30,-13 -10,-3 -20,-5 -29,-5zm285 221l-20 -63 -96 0 -19 63 -60 0 93 -265 68 0 94 265 -60 0zm-33 -110c-18,-56 -28,-89 -30,-96 -2,-8 -4,-13 -5,-18 -4,16 -15,54 -34,114l69 0zm282 37c0,24 -9,43 -26,56 -17,14 -41,21 -71,21 -29,0 -54,-5 -75,-16l0 -52c18,8 33,14 45,17 12,3 24,5 34,5 12,0 22,-3 28,-7 7,-5 10,-12 10,-21 0,-5 -1,-10 -4,-14 -3,-4 -7,-8 -13,-12 -6,-3 -17,-9 -34,-18 -16,-7 -29,-14 -37,-21 -8,-7 -14,-16 -19,-25 -5,-9 -7,-20 -7,-32 0,-24 8,-42 24,-55 15,-14 37,-20 65,-20 14,0 27,1 40,5 12,3 25,7 39,13l-18 44c-15,-6 -26,-10 -35,-12 -10,-3 -19,-4 -28,-4 -10,0 -18,3 -24,8 -6,5 -8,11 -8,19 0,5 1,9 3,13 2,4 6,7 11,10 5,4 17,10 35,19 25,12 42,24 51,35 9,12 14,27 14,44zm264 73l-56 0 0 -114 -104 0 0 114 -56 0 0 -264 56 0 0 104 104 0 0 -104 56 0 0 264zm402 -132c0,44 -11,77 -32,101 -22,23 -53,35 -94,35 -40,0 -71,-12 -93,-35 -21,-24 -32,-57 -32,-101 0,-44 11,-78 32,-101 22,-23 53,-35 94,-35 40,0 71,12 93,35 21,24 32,57 32,101zm-193 0c0,29 6,52 17,67 11,15 28,22 50,22 45,0 67,-30 67,-89 0,-59 -22,-89 -66,-89 -23,0 -39,7 -51,22 -11,15 -17,38 -17,67zm304 -7l18 0c17,0 30,-4 39,-11 8,-6 12,-16 12,-29 0,-14 -3,-23 -10,-29 -7,-7 -19,-10 -34,-10l-25 0 0 79zm126 -42c0,28 -9,50 -27,65 -17,15 -43,22 -75,22l-24 0 0 94 -56 0 0 -264 84 0c32,0 56,7 73,21 17,14 25,34 25,62zm202 181l-152 0 0 -264 152 0 0 46 -96 0 0 58 89 0 0 46 -89 0 0 68 96 0 0 46zm111 -146l18 0c17,0 30,-3 39,-9 8,-6 12,-16 12,-28 0,-13 -4,-22 -12,-27 -9,-5 -22,-8 -40,-8l-17 0 0 72zm0 45l0 101 -56 0 0 -264 77 0c35,0 62,7 79,20 17,13 26,33 26,59 0,16 -4,30 -13,42 -8,12 -20,21 -36,28 40,60 65,98 77,115l-62 0 -63 -101 -29 0zm349 101l-19 -63 -96 0 -19 63 -60 0 93 -265 68 0 94 265 -61 0zm-32 -110c-18,-56 -28,-89 -30,-96 -2,-8 -4,-13 -5,-18 -4,16 -15,54 -34,114l69 0zm202 110l-56 0 0 -217 -72 0 0 -47 199 0 0 47 -71 0 0 217zm112 0l0 -264 56 0 0 264 -56 0zm362 -132c0,44 -11,77 -33,101 -21,23 -52,35 -93,35 -40,0 -71,-12 -93,-35 -22,-24 -32,-57 -32,-101 0,-44 11,-78 32,-101 22,-23 53,-35 94,-35 40,0 71,12 93,35 21,24 32,57 32,101zm-193 0c0,29 6,52 17,67 11,15 28,22 50,22 45,0 67,-30 67,-89 0,-59 -22,-89 -66,-89 -23,0 -39,7 -51,22 -11,15 -17,38 -17,67zm482 132l-71 0 -115 -199 -2 0c2,35 4,60 4,75l0 124 -50 0 0 -264 70 0 115 198 1 0c-2,-34 -3,-59 -3,-73l0 -125 51 0 0 264zm222 -73c0,24 -9,43 -26,56 -17,14 -41,21 -71,21 -29,0 -54,-5 -75,-16l0 -52c18,8 33,14 45,17 12,3 24,5 34,5 12,0 22,-3 28,-7 7,-5 10,-12 10,-21 0,-5 -1,-10 -4,-14 -3,-4 -7,-8 -13,-12 -6,-3 -17,-9 -34,-18 -16,-7 -29,-14 -37,-21 -8,-7 -14,-16 -19,-25 -5,-9 -7,-20 -7,-32 0,-24 8,-42 24,-55 15,-14 37,-20 65,-20 14,0 27,1 40,5 12,3 25,7 39,13l-18 44c-15,-6 -26,-10 -35,-12 -10,-3 -19,-4 -28,-4 -10,0 -18,3 -24,8 -6,5 -8,11 -8,19 0,5 1,9 3,13 2,4 6,7 11,10 5,4 17,10 35,19 25,12 42,24 51,35 9,12 14,27 14,44z"/>
 </g>
</svg>
