<?xml version="1.0" standalone="no"?>
<!DOCTYPE svg PUBLIC "-//W3C//DTD SVG 20010904//EN"
 "http://www.w3.org/TR/2001/REC-SVG-20010904/DTD/svg10.dtd">
<svg version="1.0" xmlns="http://www.w3.org/2000/svg"
 width="83.000000pt" height="27.000000pt" viewBox="0 0 83.000000 27.000000"
 preserveAspectRatio="xMidYMid meet">
<metadata>
Created by potrace 1.12, written by Peter Selinger 2001-2015
</metadata>
<g transform="translate(0.000000,27.000000) scale(0.100000,-0.100000)"
fill="#000000" stroke="none">
<path d="M54 205 c-11 -27 4 -45 38 -45 24 0 60 -18 131 -66 91 -60 102 -65
145 -62 43 3 47 5 47 28 0 22 -5 26 -40 30 -26 4 -71 27 -132 68 -80 54 -98
62 -138 62 -31 0 -47 -5 -51 -15z"/>
<path d="M304 205 c-11 -27 4 -45 38 -45 24 0 60 -18 130 -65 93 -62 101 -65
157 -65 62 0 86 14 75 44 -5 12 -19 16 -58 16 -46 0 -60 6 -148 65 -84 56
-104 65 -143 65 -31 0 -47 -5 -51 -15z"/>
<path d="M562 211 c-8 -5 -12 -17 -10 -27 3 -16 15 -20 93 -24 87 -5 90 -6 94
-30 4 -31 19 -42 43 -29 21 11 25 88 6 107 -14 14 -205 17 -226 3z"/>
<path d="M54 76 c-13 -35 3 -47 58 -44 49 3 53 5 53 28 0 23 -4 25 -53 28 -40
2 -54 -1 -58 -12z"/>
</g>
</svg>
